<?xml version='1.0' encoding='iso-8859-1'?>
<svg version="1.1" xmlns="http://www.w3.org/2000/svg" viewBox="0 0 285.765 285.765" xmlns:xlink="http://www.w3.org/1999/xlink" enable-background="new 0 0 285.765 285.765">
  <g>
    <path d="M285.765,136.93L142.882,25.675L82.216,72.912V47.896h-30v48.375L0,136.93l18.432,23.67l18.95-14.756V260.09h211V145.843   l18.951,14.756L285.765,136.93z M218.382,230.09h-151V122.484l75.5-58.788l75.5,58.788V230.09z"/>
    <path d="m118.255,138.197c-13.776,1.045-24.666,12.589-24.666,26.629 0,14.726 11.98,26.706 26.706,26.706h49.086c12.569,0 22.795-10.226 22.795-22.795 0-10.882-7.688-20.08-18.043-22.275-4.958-12.198-17.007-20.466-30.369-20.466-9.958,4.26326e-14-19.31,4.517-25.509,12.201z"/>
  </g>
</svg>
