<?xml version="1.0" encoding="iso-8859-1"?>
<!-- Generator: Adobe Illustrator 18.0.0, SVG Export Plug-In . SVG Version: 6.00 Build 0)  -->
<!DOCTYPE svg PUBLIC "-//W3C//DTD SVG 1.1//EN" "http://www.w3.org/Graphics/SVG/1.1/DTD/svg11.dtd">
<svg version="1.1" id="Capa_1" xmlns="http://www.w3.org/2000/svg" xmlns:xlink="http://www.w3.org/1999/xlink" x="0px" y="0px"
	 viewBox="0 0 297 297" style="enable-background:new 0 0 297 297;" xml:space="preserve">
<g>
	<path d="M283.686,67.593h-62.472l-64.726-48.545c-4.733-3.55-11.244-3.55-15.976,0L75.786,67.593H13.314
		C5.961,67.593,0,73.554,0,80.907V267.3c0,7.353,5.961,13.314,13.314,13.314h270.372c7.353,0,13.314-5.961,13.314-13.314V80.907
		C297,73.554,291.039,67.593,283.686,67.593z M148.5,46.342l28.334,21.251h-56.669L148.5,46.342z M270.372,253.986H26.628V94.221
		h243.745V253.986z"/>
	<path d="M59.4,237.6h178.2c7.353,0,13.314-5.961,13.314-13.314v-99.341c0-7.353-5.961-13.314-13.314-13.314H59.4
		c-7.353,0-13.314,5.961-13.314,13.314v99.341C46.086,231.639,52.047,237.6,59.4,237.6z M72.714,138.259h151.572v72.714H72.714
		V138.259z"/>
</g>
<g>
</g>
<g>
</g>
<g>
</g>
<g>
</g>
<g>
</g>
<g>
</g>
<g>
</g>
<g>
</g>
<g>
</g>
<g>
</g>
<g>
</g>
<g>
</g>
<g>
</g>
<g>
</g>
<g>
</g>
</svg>
